<svg width="21" height="22" viewBox="0 0 21 22" fill="none" xmlns="http://www.w3.org/2000/svg">
<path d="M1.50879 8.92726V19.9779C1.50879 20.2615 1.72493 20.4914 1.99155 20.4914H6.75879C7.0254 20.4914 7.24155 20.2615 7.24155 19.9779V14.7788C7.24155 14.4952 7.45769 14.2653 7.72431 14.2653H12.4312C12.6978 14.2653 12.914 14.4952 12.914 14.7788V19.9779C12.914 20.2615 13.1301 20.4914 13.3967 20.4914H18.164C18.4306 20.4914 18.6467 20.2615 18.6467 19.9779V8.92726C18.6467 8.77156 18.5803 8.62429 18.4662 8.52683L10.38 1.62175C10.2034 1.47097 9.95208 1.47097 9.77554 1.62175L1.68933 8.52683C1.57519 8.62429 1.50879 8.77158 1.50879 8.92726Z" stroke="white" stroke-width="3.01724"/>
</svg>
