<svg width="30" height="21" viewBox="0 0 30 21" fill="none" xmlns="http://www.w3.org/2000/svg">
<g clip-path="url(#clip0_960_2525)">
<g clip-path="url(#clip1_960_2525)">
<path d="M22.6135 18.3685L18.148 19.3608C17.8465 19.4278 17.5605 19.1984 17.5605 18.8895V18.2845V3.10276C17.5605 2.87649 17.7177 2.68058 17.9385 2.6315L22.4041 1.63916C22.7056 1.57216 22.9915 1.80158 22.9915 2.11042V17.8017V17.8972C22.9915 18.1235 22.8344 18.3194 22.6135 18.3685Z" fill="white"/>
<path d="M10.9829 14.7241C10.9829 13.8909 10.3075 13.2155 9.47431 13.2155C8.64112 13.2155 7.96569 13.8909 7.96569 14.7241H9.47431H10.9829ZM7.96569 5.6724C7.96569 6.50559 8.64112 7.18102 9.47431 7.18102C10.3075 7.18102 10.9829 6.50559 10.9829 5.6724H9.47431H7.96569ZM18.148 19.3608L18.4753 20.8335L18.4753 20.8335L18.148 19.3608ZM22.6135 18.3685L22.2863 16.8958L22.2862 16.8958L22.6135 18.3685ZM22.4041 1.63916L22.7313 3.11185V3.11185L22.4041 1.63916ZM17.9385 2.6315L18.2658 4.10419H18.2658L17.9385 2.6315ZM1.50879 10.1379L0.434963 9.07828C-0.144763 9.66577 -0.144763 10.6101 0.434963 11.1976L1.50879 10.1379ZM6.09592 7.63721C6.68114 7.04415 6.67479 6.08897 6.08173 5.50375C5.48867 4.91852 4.53349 4.92488 3.94827 5.51793L5.02209 6.57757L6.09592 7.63721ZM3.94827 14.7579C4.53349 15.351 5.48867 15.3573 6.08173 14.7721C6.67479 14.1869 6.68114 13.2317 6.09592 12.6386L5.02209 13.6983L3.94827 14.7579ZM11.9351 11.6465C12.7683 11.6465 13.4438 10.9711 13.4438 10.1379C13.4438 9.30473 12.7683 8.6293 11.9351 8.6293V10.1379V11.6465ZM22.5088 1.50861V-1.49012e-05H9.95706V1.50861V3.01723H22.5088V1.50861ZM9.47431 14.7241H7.96569V17.8017H9.47431H10.9829V14.7241H9.47431ZM9.47431 1.99136H7.96569V5.6724H9.47431H10.9829V1.99136H9.47431ZM22.9915 1.99136H24.5002C24.5002 0.891559 23.6086 -1.49012e-05 22.5088 -1.49012e-05V1.50861V3.01723C21.9422 3.01723 21.4829 2.55793 21.4829 1.99136H22.9915ZM9.95706 18.2845V16.7758C10.5236 16.7758 10.9829 17.2351 10.9829 17.8017H9.47431H7.96569C7.96569 18.9015 8.85725 19.7931 9.95706 19.7931V18.2845ZM9.95706 1.50861V-1.49012e-05C8.85726 -1.49012e-05 7.96569 0.891555 7.96569 1.99136H9.47431H10.9829C10.9829 2.55793 10.5236 3.01723 9.95706 3.01723V1.50861ZM18.148 19.3608L18.4753 20.8335L22.9408 19.8412L22.6135 18.3685L22.2862 16.8958L17.8207 17.8881L18.148 19.3608ZM22.4041 1.63916L22.0768 0.166462L17.6113 1.1588L17.9385 2.6315L18.2658 4.10419L22.7313 3.11185L22.4041 1.63916ZM22.9915 2.11042H24.5002C24.5002 0.836442 23.3204 -0.109904 22.0768 0.166462L22.4041 1.63916L22.7313 3.11185C22.0907 3.25422 21.4829 2.76671 21.4829 2.11042H22.9915ZM22.6135 18.3685L22.9408 19.8412C23.8519 19.6387 24.5002 18.8306 24.5002 17.8972H22.9915H21.4829C21.4829 17.4164 21.8169 17.0001 22.2863 16.8958L22.6135 18.3685ZM17.5605 18.8895H16.0519C16.0519 20.1635 17.2316 21.1099 18.4753 20.8335L18.148 19.3608L17.8207 17.8881C18.4614 17.7458 19.0691 18.2332 19.0691 18.8895H17.5605ZM17.5605 3.10276H19.0691C19.0691 3.58358 18.7352 3.99989 18.2658 4.10419L17.9385 2.6315L17.6113 1.1588C16.7002 1.36127 16.0519 2.1694 16.0519 3.10276H17.5605ZM1.50879 10.1379L2.58262 11.1976L6.09592 7.63721L5.02209 6.57757L3.94827 5.51793L0.434963 9.07828L1.50879 10.1379ZM5.02209 13.6983L6.09592 12.6386L2.58262 9.07828L1.50879 10.1379L0.434963 11.1976L3.94827 14.7579L5.02209 13.6983ZM1.50879 10.1379V11.6465H11.9351V10.1379V8.6293H1.50879V10.1379ZM22.9915 2.11042H24.5002V1.99136H22.9915H21.4829V2.11042H22.9915ZM22.9915 17.8972H24.5002V17.8017H22.9915H21.4829V17.8972H22.9915ZM22.9915 17.8017H24.5002V2.11042H22.9915H21.4829V17.8017H22.9915ZM17.5605 3.10276H16.0519V18.2845H17.5605H19.0691V3.10276H17.5605ZM17.5605 18.2845H16.0519V18.8895H17.5605H19.0691V18.2845H17.5605ZM9.95706 18.2845V19.7931H17.5605V18.2845V16.7758H9.95706V18.2845Z" fill="white"/>
</g>
</g>
<defs>
<clipPath id="clip0_960_2525">
<rect width="30" height="20.8818" fill="white"/>
</clipPath>
<clipPath id="clip1_960_2525">
<rect width="24.5" height="20.8818" fill="white"/>
</clipPath>
</defs>
</svg>
