<svg width="25" height="27" viewBox="0 0 25 27" fill="none" xmlns="http://www.w3.org/2000/svg">
<path d="M4.8125 20.1634C5.875 19.2954 7.0625 18.6111 8.375 18.1103C9.6875 17.6096 11.0625 17.3592 12.5 17.3592C13.9375 17.3592 15.3125 17.6096 16.625 18.1103C17.9375 18.6111 19.125 19.2954 20.1875 20.1634C20.9167 19.2509 21.4844 18.216 21.8906 17.0588C22.2969 15.9015 22.5 14.6663 22.5 13.3532C22.5 10.3933 21.526 7.87285 19.5781 5.79197C17.6302 3.71109 15.2708 2.67065 12.5 2.67065C9.72917 2.67065 7.36979 3.71109 5.42188 5.79197C3.47396 7.87285 2.5 10.3933 2.5 13.3532C2.5 14.6663 2.70312 15.9015 3.10938 17.0588C3.51562 18.216 4.08333 19.2509 4.8125 20.1634ZM12.5 14.6886C11.2708 14.6886 10.2344 14.2379 9.39062 13.3366C8.54688 12.4352 8.125 11.328 8.125 10.0149C8.125 8.70186 8.54688 7.59466 9.39062 6.69331C10.2344 5.79197 11.2708 5.3413 12.5 5.3413C13.7292 5.3413 14.7656 5.79197 15.6094 6.69331C16.4531 7.59466 16.875 8.70186 16.875 10.0149C16.875 11.328 16.4531 12.4352 15.6094 13.3366C14.7656 14.2379 13.7292 14.6886 12.5 14.6886ZM12.5 26.7065C10.7708 26.7065 9.14583 26.356 7.625 25.6549C6.10417 24.9539 4.78125 24.0025 3.65625 22.8007C2.53125 21.5989 1.64062 20.1857 0.984375 18.561C0.328125 16.9364 0 15.2004 0 13.3532C0 11.506 0.328125 9.77012 0.984375 8.14548C1.64062 6.52083 2.53125 5.10761 3.65625 3.90582C4.78125 2.70403 6.10417 1.75261 7.625 1.05157C9.14583 0.350523 10.7708 0 12.5 0C14.2292 0 15.8542 0.350523 17.375 1.05157C18.8958 1.75261 20.2188 2.70403 21.3438 3.90582C22.4688 5.10761 23.3594 6.52083 24.0156 8.14548C24.6719 9.77012 25 11.506 25 13.3532C25 15.2004 24.6719 16.9364 24.0156 18.561C23.3594 20.1857 22.4688 21.5989 21.3438 22.8007C20.2188 24.0025 18.8958 24.9539 17.375 25.6549C15.8542 26.356 14.2292 26.7065 12.5 26.7065ZM12.5 24.0358C13.6042 24.0358 14.6458 23.8634 15.625 23.5184C16.6042 23.1734 17.5 22.6783 18.3125 22.0328C17.5 21.3874 16.6042 20.8923 15.625 20.5473C14.6458 20.2023 13.6042 20.0299 12.5 20.0299C11.3958 20.0299 10.3542 20.2023 9.375 20.5473C8.39583 20.8923 7.5 21.3874 6.6875 22.0328C7.5 22.6783 8.39583 23.1734 9.375 23.5184C10.3542 23.8634 11.3958 24.0358 12.5 24.0358ZM12.5 12.0179C13.0417 12.0179 13.4896 11.8287 13.8438 11.4504C14.1979 11.0721 14.375 10.5936 14.375 10.0149C14.375 9.43629 14.1979 8.9578 13.8438 8.57946C13.4896 8.20112 13.0417 8.01194 12.5 8.01194C11.9583 8.01194 11.5104 8.20112 11.1562 8.57946C10.8021 8.9578 10.625 9.43629 10.625 10.0149C10.625 10.5936 10.8021 11.0721 11.1562 11.4504C11.5104 11.8287 11.9583 12.0179 12.5 12.0179Z" fill="white"/>
</svg>
