<svg width="23" height="23" viewBox="0 0 23 23" fill="none" xmlns="http://www.w3.org/2000/svg">
<path d="M2.3 23C1.6675 23 1.12604 22.7629 0.675625 22.2888C0.225208 21.8147 0 21.2447 0 20.5789V7.26316C0 6.59737 0.225208 6.02741 0.675625 5.55329C1.12604 5.07917 1.6675 4.8421 2.3 4.8421H6.9V2.42105C6.9 1.75526 7.12521 1.18531 7.57562 0.711184C8.02604 0.237061 8.5675 0 9.2 0H13.8C14.4325 0 14.974 0.237061 15.4244 0.711184C15.8748 1.18531 16.1 1.75526 16.1 2.42105V4.8421H20.7C21.3325 4.8421 21.874 5.07917 22.3244 5.55329C22.7748 6.02741 23 6.59737 23 7.26316V20.5789C23 21.2447 22.7748 21.8147 22.3244 22.2888C21.874 22.7629 21.3325 23 20.7 23H2.3ZM9.2 4.8421H13.8V2.42105H9.2V4.8421ZM4.6 7.26316H2.3V20.5789H4.6V7.26316ZM16.1 20.5789V7.26316H6.9V20.5789H16.1ZM18.4 7.26316V20.5789H20.7V7.26316H18.4Z" fill="white"/>
</svg>
