<svg width="23" height="20" viewBox="0 0 23 20" fill="none" xmlns="http://www.w3.org/2000/svg">
<path d="M0 20V4.44444H5.11111V0H17.8889V8.88889H23V20H12.7778V15.5556H10.2222V20H0ZM2.55556 17.7778H5.11111V15.5556H2.55556V17.7778ZM2.55556 13.3333H5.11111V11.1111H2.55556V13.3333ZM2.55556 8.88889H5.11111V6.66667H2.55556V8.88889ZM7.66667 13.3333H10.2222V11.1111H7.66667V13.3333ZM7.66667 8.88889H10.2222V6.66667H7.66667V8.88889ZM7.66667 4.44444H10.2222V2.22222H7.66667V4.44444ZM12.7778 13.3333H15.3333V11.1111H12.7778V13.3333ZM12.7778 8.88889H15.3333V6.66667H12.7778V8.88889ZM12.7778 4.44444H15.3333V2.22222H12.7778V4.44444ZM17.8889 17.7778H20.4444V15.5556H17.8889V17.7778ZM17.8889 13.3333H20.4444V11.1111H17.8889V13.3333Z" fill="white"/>
</svg>
