<svg width="904" height="720" viewBox="0 0 904 720" fill="none" xmlns="http://www.w3.org/2000/svg">
<rect x="661.123" y="520.223" width="563.996" height="562.122" rx="149.899" transform="rotate(40 661.123 520.223)" fill="#2F9E41"/>
<path d="M526.048 463.138C528.849 468.273 532.301 472.296 536.007 475.447C553.298 490.151 579.572 485.346 598.281 472.496C612.483 462.742 627.56 446.974 633.806 422.212C647.067 369.644 682.174 378.939 687.214 338.616C697.083 259.665 613.057 240.72 569.948 250.957C532.553 259.837 516.677 293.049 503.061 307.849C489.445 322.648 441.539 318.298 444.354 367.236C446.906 411.6 483.525 398.347 503.061 419.659C522.597 440.97 515.392 443.602 526.048 463.138Z" fill="#2F9E41"/>
<g clip-path="url(#clip0_1000_2951)">
<path d="M584.16 273.322C587.334 252.493 576.722 238.622 570.818 234.193C548.7 241.909 524.766 269.271 515.133 282.545C492.128 295.715 476.24 316.654 476.24 332.032C476.24 356.165 483.415 384.865 484.068 392.039C484.589 397.779 479.067 400.519 476.24 401.171C478.849 445.525 532.987 456.178 559.729 455.961C599.908 455.961 639.087 432.045 653.655 420.087C650.393 418.565 643.088 412.651 639.957 401.171C637.291 391.397 640.707 371.03 641.487 351.409C677.159 331.577 675.032 292.666 669.309 275.285C643.666 270.623 618.37 277.503 605.866 282.725C599.466 278.821 592.22 275.557 584.16 273.322Z" fill="url(#paint0_linear_1000_2951)"/>
<path d="M525.141 270.067C536.969 256.485 554.394 239.922 570.818 234.193C557.767 240.455 534.929 260.718 525.141 270.067Z" fill="#C37B56"/>
<path d="M614.527 279.586C628.228 275.263 648.656 271.53 669.309 275.285C660.18 274.891 636.443 275.199 614.527 279.586Z" fill="#C37B56"/>
<path d="M653.655 420.087C650.393 418.565 643.088 412.651 639.957 401.171C637.291 391.397 640.707 371.03 641.487 351.409C677.159 331.577 675.032 292.666 669.309 275.285C664.528 299.636 654.967 337.25 630.181 315.725C620.18 335.945 615.831 403.128 626.267 418.782C626.267 418.782 612.439 433.212 593.654 450.86C620.447 443.168 643.286 428.598 653.655 420.087Z" fill="#9B5F41"/>
<path d="M499.729 345.077C499.729 349.773 501.034 366.602 501.686 374.429L484.068 382.908C481.451 371.82 477.553 340.076 478.857 339.207C490.598 331.38 499.729 339.207 499.729 345.077Z" fill="#9B5F41"/>
<path d="M526.472 350.295C524.907 363.34 526.689 388.343 527.776 399.214C532.125 405.954 543.692 419.695 555.171 420.739C569.521 422.043 566.26 370.515 564.303 366.602C562.346 362.688 527.568 341.163 526.472 350.295Z" fill="#9B5F41"/>
<path d="M554.519 270.067C568.086 267.98 579.063 272.237 584.16 273.322C586.539 257.711 581.174 246.008 575.851 239.26C575.207 237.994 574.411 237.196 573.718 236.802C574.415 237.53 575.133 238.35 575.851 239.26C577.34 242.189 578.018 247.626 574.739 256.37C570.043 268.893 560.781 269.104 554.519 270.067Z" fill="#9B5F41"/>
<path d="M653.655 420.087C650.393 418.565 643.088 412.651 639.957 401.171C638.256 394.935 639.031 384.387 640.017 372.472C639.13 379.647 636.703 390.735 638.008 400.519C638.907 407.263 646.052 417.478 649.749 420.739C644.009 425.957 626.485 436.773 618.44 441.529C634.087 434.263 646.686 425.807 653.655 420.087Z" fill="#B46E4A"/>
<path d="M671.442 309.855C669.188 322.232 663.262 335.064 650.905 345.077C663.832 329.423 669.983 315.073 671.442 309.855Z" fill="#B46E4A"/>
<path d="M578.653 243.327C582.33 249.45 585.306 258.06 584.649 268.763C583.954 262.459 581.783 248.547 578.653 243.327Z" fill="#B46E4A"/>
<path d="M561.694 269.415C525.826 269.415 491.516 294.599 480.408 316.827C497.12 290.94 538.212 264.849 575.879 271.213C570.538 270.223 567.656 269.415 561.694 269.415Z" fill="#C37B56"/>
<path d="M500.049 407.045C501.834 404.893 503.825 403.285 505.592 402.476C504.599 398.753 503.21 390.103 502.104 379.386C506.965 371.429 520.8 378.91 527.325 393.848C527.654 398.865 528.24 403.486 528.421 406.389C528.943 414.738 535.596 420.087 541.466 421.391C551.823 423.693 557.749 421.759 560.954 418.234C572.05 422.954 580.503 430.088 583.863 433.784C576.036 442.698 548.641 463.788 506.897 444.22C490.623 435.935 477.493 422.465 476.24 401.171C479.067 400.519 484.589 397.779 484.067 392.039C484.705 392.234 485.481 392.502 486.342 392.837C489.914 402.463 495.366 406.967 500.049 407.045Z" fill="#B39A84"/>
<path d="M510.166 438.35C505.469 439.394 500.819 432.262 501.034 426.609C509.298 426.174 530.87 423.087 528.421 427.262C525.361 432.48 516.036 437.045 510.166 438.35Z" fill="#9D836B"/>
<path d="M506.897 444.22C492.714 437 480.92 425.842 477.293 408.998C480.351 417.043 490.554 435.349 506.897 444.22Z" fill="#CBB19B"/>
<path d="M494.302 339.965C487.267 333.897 480.879 338.159 477.798 340.534C480.888 335.942 483.588 332.756 489.474 332.269C497.925 331.571 503.096 347.55 494.302 339.965Z" fill="#5B402D"/>
<path d="M529.726 350.947C545.318 352.433 559.729 361.601 564.948 367.254C562.121 363.34 552.694 352.109 544.075 348.338C533.639 343.772 516.028 349.643 529.726 350.947Z" fill="#5B402D"/>
<path d="M483.415 380.951C480.154 358.774 485.372 354.861 490.59 354.209C494.082 353.772 498.391 360.864 500.99 366.265C502.083 382.721 504.218 397.322 505.592 402.476C503.825 403.286 501.834 404.893 500.049 407.045C493.743 406.94 486.042 398.809 483.415 380.951Z" fill="white"/>
<path d="M490.59 354.209C485.973 354.786 481.355 357.917 482.613 373.997C482.671 376.216 482.907 378.374 483.321 380.297C483.351 380.513 483.383 380.731 483.415 380.951C483.401 380.814 483.404 380.672 483.373 380.536C483.355 380.457 483.338 380.377 483.321 380.297C482.995 378.002 482.763 375.908 482.613 373.997C482.392 365.467 484.808 356.027 489.945 355.513C494.489 355.06 496.274 357.595 500.99 366.265C498.391 360.865 494.082 353.772 490.59 354.209Z" fill="#EFC3C3"/>
<path d="M483.415 380.951C480.154 358.774 485.372 354.86 490.59 354.208C494.065 353.774 498.349 360.796 500.953 366.187C500.957 365.927 500.964 365.626 500.974 365.297C499.077 361.383 497.125 354.247 491.25 353.556C480.162 352.252 480.799 371.167 483.415 380.951Z" fill="#5B402D"/>
<path d="M528.421 406.389C528.943 414.738 535.596 420.087 541.467 421.391C559.893 425.486 564.295 416.173 564.295 408.346C564.295 403.087 561.034 376.385 541.467 369.863C521.899 363.34 527.769 395.953 528.421 406.389Z" fill="white"/>
<path d="M564.295 408.346C564.295 403.087 561.034 376.385 541.467 369.863C534.105 367.409 530.344 370.494 528.551 375.853C528.275 376.62 528.064 377.434 527.899 378.272C527.431 380.473 527.2 382.922 527.124 385.453C527.328 383.237 527.429 380.66 527.899 378.272C528.08 377.426 528.295 376.616 528.551 375.853C530.012 371.791 533.313 369.053 541.467 371.167C555.549 374.82 562.554 397.475 564.295 408.346Z" fill="#EFC3C3"/>
<path d="M541.467 369.863C559.22 375.781 563.551 398.31 564.201 406.364C564.238 407.023 564.27 407.684 564.295 408.346C564.295 407.859 564.267 407.187 564.201 406.364C563.28 390.132 558.662 374.858 542.126 368.558C528.429 363.34 526.453 378.777 527.095 387.474C527.093 376.328 529.609 365.91 541.467 369.863Z" fill="#5B402D"/>
<path d="M538.857 385.517C544.075 385.517 548.641 393.967 548.641 401.171C548.641 407.042 545.837 411.81 540.814 410.303C534.291 408.346 532.334 385.517 538.857 385.517Z" fill="#00CC21"/>
<path d="M538.857 385.517C544.075 385.517 548.641 393.967 548.641 401.171C548.641 407.042 545.837 411.81 540.814 410.303C534.291 408.346 532.334 385.517 538.857 385.517Z" fill="#00CC21"/>
<path d="M538.857 385.517C544.075 385.517 548.641 393.967 548.641 401.171C548.628 401.16 548.614 401.148 548.601 401.136C544.735 393.996 542.778 393.344 534.932 397.035C534.473 391.134 535.622 385.517 538.857 385.517Z" fill="#007144"/>
<path d="M542.342 392.692C544.314 392.692 546.04 396.65 546.04 400.024C546.04 402.773 544.98 405.007 543.081 404.301C540.616 403.384 539.876 392.692 542.342 392.692Z" fill="#007144"/>
<path d="M499.722 397.91C493.199 395.301 491.242 373.124 497.765 373.124C499.095 373.124 500.466 373.715 501.646 374.652C502.47 383.81 503.545 391.87 504.505 397.291C503.247 398.337 501.631 398.674 499.722 397.91Z" fill="#00CC21"/>
<path d="M501.646 374.652C500.466 373.715 499.095 373.124 497.765 373.124C494.323 373.124 493.242 379.3 493.948 385.517C495.816 384.213 499.077 382.256 501.034 384.213C502.62 385.799 502.877 386.367 502.953 386.808C502.965 386.908 502.978 387.008 502.991 387.107C502.978 387.007 502.97 386.911 502.953 386.808C502.487 383.115 502.038 379.007 501.646 374.652Z" fill="#007144"/>
<path d="M500.217 380.951C501.696 380.951 502.991 384.909 502.991 388.283C502.991 391.033 502.196 393.266 500.772 392.56C498.923 391.644 498.368 380.951 500.217 380.951Z" fill="#007144"/>
<path d="M495.156 424C493.199 414.216 500.374 404.867 505.592 402.476C524.899 402.998 528.421 416.825 528.421 427.261C526.029 428.131 523.464 429.349 516.68 432.48C508.201 436.393 498.073 438.585 495.156 424Z" fill="#FF8D35"/>
<path d="M498.66 414.702C499.426 408.146 503.913 406.391 505.412 405.882C507.986 405.103 505.229 408.144 503.649 409.886L503.649 409.886C501.79 411.936 498.354 417.329 498.66 414.702Z" fill="#FFC466"/>
<path d="M528.421 427.262C526.029 428.131 523.464 429.349 516.68 432.48C514.079 433.68 506.389 435.7 506.904 432.48C509.513 416.173 523.863 418.782 523.863 414.217C523.863 409.651 519.949 406.71 518.645 405.843C526.636 410.686 528.421 419.833 528.421 427.262Z" fill="#F9753C"/>
<path d="M528.361 424.957C528.403 425.739 528.421 426.509 528.421 427.262C526.109 428.102 523.634 429.269 517.34 432.175C519.297 430.523 519.949 429.871 522.558 428.566C526.407 426.642 528.166 425.725 528.361 424.957Z" fill="#FF9162"/>
<path d="M505.592 402.476C524.899 402.998 528.421 416.825 528.421 427.262C529.718 423.348 529.733 407.042 516.036 401.823C505.078 397.649 503.208 401.288 503.643 403.63C504.308 403.152 504.964 402.763 505.592 402.476Z" fill="#5B402D"/>
<circle cx="3.91355" cy="3.91355" r="3.91355" transform="matrix(-1 0 0 1 539.517 386.169)" fill="white"/>
<circle cx="2.60903" cy="2.60903" r="2.60903" transform="matrix(-1 0 0 1 497.773 375.733)" fill="white"/>
</g>
<path d="M706.55 428.23C709.856 426.562 713.699 429.209 713.319 432.892L711.507 450.474C711.415 451.365 711.581 452.264 711.984 453.064L719.944 468.845C721.612 472.151 718.965 475.994 715.281 475.614L697.7 473.802C696.808 473.71 695.91 473.876 695.11 474.279L679.329 482.239C676.022 483.907 672.18 481.26 672.559 477.577L674.371 459.995C674.463 459.104 674.298 458.205 673.894 457.405L665.934 441.624C664.267 438.318 666.914 434.475 670.597 434.855L688.179 436.667C689.07 436.758 689.969 436.593 690.769 436.189L706.55 428.23Z" fill="#2F9E41"/>
<path d="M431.981 251.072C433.109 248.537 436.594 248.251 438.12 250.568L445.405 261.629C445.774 262.19 446.297 262.633 446.91 262.906L459.012 268.289C461.547 269.417 461.833 272.902 459.516 274.428L448.454 281.713C447.894 282.082 447.451 282.605 447.178 283.218L441.795 295.32C440.667 297.855 437.182 298.141 435.656 295.824L428.371 284.762C428.001 284.202 427.479 283.759 426.866 283.486L414.764 278.103C412.229 276.975 411.943 273.49 414.26 271.964L425.321 264.679C425.882 264.309 426.325 263.787 426.598 263.174L431.981 251.072Z" fill="#2F9E41"/>
<rect x="361.325" y="-592.779" width="563.996" height="562.122" rx="149.899" transform="rotate(40 361.325 -592.779)" fill="#2F9E41"/>
<defs>
<linearGradient id="paint0_linear_1000_2951" x1="475.596" y1="234.845" x2="672.578" y2="456.613" gradientUnits="userSpaceOnUse">
<stop offset="0.349203" stop-color="#B46E4A"/>
<stop offset="1" stop-color="#A76D50"/>
</linearGradient>
<clipPath id="clip0_1000_2951">
<rect width="196.982" height="223.072" fill="white" transform="matrix(-1 0 0 1 672.578 233.541)"/>
</clipPath>
</defs>
</svg>
