<svg width="212" height="34" viewBox="0 0 212 34" fill="none" xmlns="http://www.w3.org/2000/svg">
<path d="M18.852 8.53V13.926H27.554V18.942H18.852V24.794H28.694V30H12.354V3.324H28.694V8.53H18.852ZM42.5646 30.266C40.614 30.266 38.866 29.9493 37.3206 29.316C35.7753 28.6827 34.534 27.7453 33.5966 26.504C32.6846 25.2627 32.2033 23.768 32.1526 22.02H39.0686C39.17 23.008 39.512 23.768 40.0946 24.3C40.6773 24.8067 41.4373 25.06 42.3746 25.06C43.3373 25.06 44.0973 24.8447 44.6546 24.414C45.212 23.958 45.4906 23.3373 45.4906 22.552C45.4906 21.8933 45.2626 21.3487 44.8066 20.918C44.376 20.4873 43.8313 20.1327 43.1726 19.854C42.5393 19.5753 41.6273 19.2587 40.4366 18.904C38.714 18.372 37.308 17.84 36.2186 17.308C35.1293 16.776 34.192 15.9907 33.4066 14.952C32.6213 13.9133 32.2286 12.558 32.2286 10.886C32.2286 8.40333 33.128 6.46533 34.9266 5.072C36.7253 3.65333 39.0686 2.944 41.9566 2.944C44.8953 2.944 47.264 3.65333 49.0626 5.072C50.8613 6.46533 51.824 8.416 51.9506 10.924H44.9206C44.87 10.0627 44.5533 9.39133 43.9706 8.91C43.388 8.40333 42.6406 8.15 41.7286 8.15C40.9433 8.15 40.31 8.36533 39.8286 8.796C39.3473 9.20133 39.1066 9.79666 39.1066 10.582C39.1066 11.4433 39.512 12.1147 40.3226 12.596C41.1333 13.0773 42.4 13.5967 44.1226 14.154C45.8453 14.7367 47.2386 15.294 48.3026 15.826C49.392 16.358 50.3293 17.1307 51.1146 18.144C51.9 19.1573 52.2926 20.462 52.2926 22.058C52.2926 23.578 51.9 24.9587 51.1146 26.2C50.3546 27.4413 49.24 28.4293 47.7706 29.164C46.3013 29.8987 44.566 30.266 42.5646 30.266ZM75.4815 3.324V8.53H68.4135V30H61.9155V8.53H54.8475V3.324H75.4815ZM128.662 11.76C128.18 10.8733 127.484 10.202 126.572 9.746C125.685 9.26466 124.634 9.024 123.418 9.024C121.315 9.024 119.63 9.72067 118.364 11.114C117.097 12.482 116.464 14.3187 116.464 16.624C116.464 19.0813 117.122 21.0067 118.44 22.4C119.782 23.768 121.619 24.452 123.95 24.452C125.546 24.452 126.888 24.0467 127.978 23.236C129.092 22.4253 129.903 21.26 130.41 19.74H122.164V14.952H136.3V20.994C135.818 22.6153 134.995 24.1227 133.83 25.516C132.69 26.9093 131.233 28.0367 129.46 28.898C127.686 29.7593 125.685 30.19 123.456 30.19C120.821 30.19 118.465 29.62 116.388 28.48C114.336 27.3147 112.727 25.706 111.562 23.654C110.422 21.602 109.852 19.2587 109.852 16.624C109.852 13.9893 110.422 11.646 111.562 9.594C112.727 7.51667 114.336 5.908 116.388 4.768C118.44 3.60267 120.783 3.02 123.418 3.02C126.61 3.02 129.295 3.79267 131.474 5.338C133.678 6.88333 135.134 9.024 135.844 11.76H128.662ZM146.397 3.324V30H139.899V3.324H146.397ZM163.722 30.266C161.214 30.266 158.909 29.6833 156.806 28.518C154.729 27.3527 153.069 25.7313 151.828 23.654C150.612 21.5513 150.004 19.1953 150.004 16.586C150.004 13.9767 150.612 11.6333 151.828 9.556C153.069 7.47867 154.729 5.85733 156.806 4.692C158.909 3.52667 161.214 2.944 163.722 2.944C166.23 2.944 168.523 3.52667 170.6 4.692C172.703 5.85733 174.349 7.47867 175.54 9.556C176.756 11.6333 177.364 13.9767 177.364 16.586C177.364 19.1953 176.756 21.5513 175.54 23.654C174.324 25.7313 172.677 27.3527 170.6 28.518C168.523 29.6833 166.23 30.266 163.722 30.266ZM163.722 24.338C165.85 24.338 167.547 23.6287 168.814 22.21C170.106 20.7913 170.752 18.9167 170.752 16.586C170.752 14.23 170.106 12.3553 168.814 10.962C167.547 9.54333 165.85 8.834 163.722 8.834C161.569 8.834 159.846 9.53067 158.554 10.924C157.287 12.3173 156.654 14.2047 156.654 16.586C156.654 18.942 157.287 20.8293 158.554 22.248C159.846 23.6413 161.569 24.338 163.722 24.338ZM190.631 30.266C188.68 30.266 186.932 29.9493 185.387 29.316C183.842 28.6827 182.6 27.7453 181.663 26.504C180.751 25.2627 180.27 23.768 180.219 22.02H187.135C187.236 23.008 187.578 23.768 188.161 24.3C188.744 24.8067 189.504 25.06 190.441 25.06C191.404 25.06 192.164 24.8447 192.721 24.414C193.278 23.958 193.557 23.3373 193.557 22.552C193.557 21.8933 193.329 21.3487 192.873 20.918C192.442 20.4873 191.898 20.1327 191.239 19.854C190.606 19.5753 189.694 19.2587 188.503 18.904C186.78 18.372 185.374 17.84 184.285 17.308C183.196 16.776 182.258 15.9907 181.473 14.952C180.688 13.9133 180.295 12.558 180.295 10.886C180.295 8.40333 181.194 6.46533 182.993 5.072C184.792 3.65333 187.135 2.944 190.023 2.944C192.962 2.944 195.33 3.65333 197.129 5.072C198.928 6.46533 199.89 8.416 200.017 10.924H192.987C192.936 10.0627 192.62 9.39133 192.037 8.91C191.454 8.40333 190.707 8.15 189.795 8.15C189.01 8.15 188.376 8.36533 187.895 8.796C187.414 9.20133 187.173 9.79666 187.173 10.582C187.173 11.4433 187.578 12.1147 188.389 12.596C189.2 13.0773 190.466 13.5967 192.189 14.154C193.912 14.7367 195.305 15.294 196.369 15.826C197.458 16.358 198.396 17.1307 199.181 18.144C199.966 19.1573 200.359 20.462 200.359 22.058C200.359 23.578 199.966 24.9587 199.181 26.2C198.421 27.4413 197.306 28.4293 195.837 29.164C194.368 29.8987 192.632 30.266 190.631 30.266Z" fill="#F5F5F5"/>
<path d="M76 16.7257V31H82.9189V16.7617C82.9189 13.5587 84.6651 10.6013 87.4945 9.01225C90.2863 7.44427 93.7137 7.44427 96.5055 9.01225C99.3349 10.6013 101.081 13.5587 101.081 16.7617V31H108V16.7257C108 11.3976 105.255 6.43194 100.707 3.53245C95.4107 0.155851 88.5893 0.155851 83.2929 3.53245C78.7449 6.43194 76 11.3976 76 16.7257Z" fill="#F5F5F5"/>
<path d="M88.973 15.6993C88.973 14.2909 90.1346 13.1492 91.5676 13.1492C93.0005 13.1492 94.1622 14.2909 94.1622 15.6993V19.0995H95.8919C97.3248 19.0995 98.4865 20.2412 98.4865 21.6496C98.4865 23.058 97.3248 24.1997 95.8919 24.1997H91.5676C90.1346 24.1997 88.973 23.058 88.973 21.6496V15.6993Z" fill="#F5F5F5"/>
</svg>
