<svg width="174" height="197" viewBox="0 0 174 197" fill="none" xmlns="http://www.w3.org/2000/svg">
<g clip-path="url(#clip0_1_61)">
<path d="M78.057 35.1192C75.2548 16.7314 84.6229 4.48544 89.8357 0.575836C109.361 7.38715 130.491 31.5432 138.995 43.2618C159.304 54.8881 173.33 73.3737 173.33 86.9496C173.33 108.255 166.996 133.592 166.421 139.926C165.96 144.993 170.835 147.411 173.33 147.987C171.027 187.143 123.234 196.549 99.6247 196.357C64.1538 196.357 29.5658 175.243 16.7057 164.686C19.5848 163.343 26.0341 158.122 28.7981 147.987C31.1514 139.358 28.1364 121.378 27.4474 104.056C-4.04448 86.5482 -2.16632 52.1966 2.88589 36.8529C25.5236 32.7369 47.8553 38.8107 58.8946 43.4209C64.5443 39.9739 70.941 37.0924 78.057 35.1192Z" fill="url(#paint0_linear_1_61)"/>
<path d="M130.16 32.2463C119.718 20.2551 104.335 5.6336 89.8357 0.575836C101.358 6.10377 121.519 23.9928 130.16 32.2463Z" fill="#C37B56"/>
<path d="M51.2485 40.6493C39.1528 36.8328 21.1186 33.5378 2.88588 36.8529C10.9452 36.5047 31.9008 36.7764 51.2485 40.6493Z" fill="#C37B56"/>
<path d="M16.7057 164.686C19.5848 163.343 26.0341 158.122 28.7981 147.987C31.1514 139.358 28.1364 121.378 27.4474 104.056C-4.04448 86.5482 -2.16632 52.1966 2.88589 36.8529C7.10636 58.3504 15.5473 91.5564 37.4287 72.5541C46.258 90.4047 50.0969 149.715 40.8837 163.535C40.8837 163.535 53.0912 176.274 69.675 191.854C46.0217 185.063 25.8595 172.201 16.7057 164.686Z" fill="#9B5F41"/>
<path d="M152.594 98.4663C152.594 102.612 151.442 117.469 150.866 124.378L166.421 131.864C168.731 122.075 172.172 94.0516 171.02 93.2839C160.656 86.3739 152.594 93.2839 152.594 98.4663Z" fill="#9B5F41"/>
<path d="M128.985 103.073C130.367 114.589 128.793 136.663 127.833 146.26C123.995 152.21 113.783 164.341 103.649 165.262C90.9805 166.414 93.8597 120.924 95.5872 117.469C97.3146 114.014 128.018 95.0113 128.985 103.073Z" fill="#9B5F41"/>
<path d="M104.225 32.2463C92.2474 30.4036 82.5568 34.1616 78.057 35.1192C75.9568 21.3377 80.693 11.0063 85.3925 5.04891C85.9609 3.93098 86.6633 3.22673 87.2754 2.87914C86.6597 3.5213 86.0264 4.24531 85.3925 5.04891C84.0775 7.63503 83.4793 12.4349 86.3739 20.1539C90.5199 31.2098 98.6964 31.3958 104.225 32.2463Z" fill="#9B5F41"/>
<path d="M16.7057 164.686C19.5848 163.343 26.0341 158.122 28.7981 147.987C30.2996 142.482 29.6157 133.17 28.745 122.651C29.5282 128.985 31.6704 138.774 30.5188 147.412C29.725 153.365 23.4169 162.383 20.1539 165.262C25.2212 169.869 40.6917 179.417 47.7936 183.616C33.9804 177.201 22.8572 169.736 16.7057 164.686Z" fill="#B46E4A"/>
<path d="M1.00254 67.3719C2.99248 78.2984 8.2243 89.6268 19.1327 98.4665C7.7205 84.6466 2.29084 71.9785 1.00254 67.3719Z" fill="#B46E4A"/>
<path d="M82.919 8.63965C79.6728 14.0451 77.0453 21.6462 77.6255 31.0948C78.2383 25.5299 80.155 13.2479 82.919 8.63965Z" fill="#B46E4A"/>
<path d="M97.8905 31.6704C129.555 31.6704 159.845 53.9037 169.651 73.5267C154.897 50.6727 118.62 27.6397 85.3674 33.2572C90.0825 32.3838 92.6269 31.6704 97.8905 31.6704Z" fill="#C37B56"/>
<path d="M152.312 153.172C150.736 151.273 148.978 149.854 147.418 149.139C148.295 145.853 149.521 138.216 150.498 128.754C146.206 121.73 133.992 128.335 128.232 141.522C127.941 145.951 127.424 150.03 127.264 152.594C126.803 159.965 120.93 164.686 115.748 165.838C106.605 167.87 101.373 166.162 98.5439 163.05C88.7477 167.218 81.2857 173.515 78.3191 176.779C85.229 184.648 109.414 203.267 146.267 185.992C160.633 178.678 172.225 166.786 173.33 147.987C170.835 147.411 165.96 144.993 166.421 139.925C165.858 140.097 165.173 140.334 164.413 140.63C161.259 149.128 156.446 153.104 152.312 153.172Z" fill="#B39A84"/>
<path d="M143.381 180.809C147.527 181.731 151.632 175.435 151.443 170.445C144.146 170.061 125.103 167.335 127.264 171.02C129.966 175.627 138.199 179.658 143.381 180.809Z" fill="#9D836B"/>
<path d="M146.267 185.992C158.787 179.618 169.2 169.767 172.401 154.897C169.701 161.999 160.695 178.16 146.267 185.992Z" fill="#CBB19B"/>
<path d="M157.385 93.9534C163.596 88.5965 169.236 92.3592 171.955 94.4556C169.227 90.4019 166.844 87.5889 161.647 87.1594C154.187 86.5428 149.622 100.649 157.385 93.9534Z" fill="#5B402D"/>
<path d="M126.113 103.649C112.347 104.96 99.6247 113.054 95.0181 118.044C97.5133 114.589 105.836 104.674 113.445 101.345C122.658 97.3144 138.205 102.497 126.113 103.649Z" fill="#5B402D"/>
<path d="M166.996 130.137C169.875 110.559 165.269 107.104 160.662 106.528C157.579 106.142 153.776 112.404 151.481 117.172C150.516 131.699 148.632 144.589 147.418 149.139C148.978 149.854 150.736 151.273 152.312 153.173C157.879 153.08 164.678 145.902 166.996 130.137Z" fill="white"/>
<path d="M160.662 106.528C164.739 107.037 168.815 109.802 167.704 123.997C167.653 125.957 167.445 127.862 167.08 129.559C167.053 129.75 167.025 129.943 166.996 130.137C167.009 130.015 167.006 129.891 167.033 129.77C167.049 129.7 167.064 129.63 167.08 129.559C167.367 127.533 167.572 125.684 167.704 123.997C167.9 116.467 165.767 108.133 161.231 107.68C157.22 107.279 155.644 109.517 151.481 117.172C153.776 112.404 157.579 106.143 160.662 106.528Z" fill="#EFC3C3"/>
<path d="M166.996 130.136C169.875 110.558 165.269 107.103 160.662 106.527C157.594 106.144 153.812 112.343 151.514 117.102C151.51 116.873 151.504 116.607 151.495 116.316C153.17 112.862 154.893 106.562 160.08 105.952C169.869 104.8 169.306 121.499 166.996 130.136Z" fill="#5B402D"/>
<path d="M127.264 152.594C126.804 159.965 120.93 164.686 115.748 165.838C99.4807 169.453 95.5939 161.231 95.5939 154.321C95.5939 149.679 98.4728 126.106 115.748 120.348C133.022 114.589 127.84 143.381 127.264 152.594Z" fill="white"/>
<path d="M95.5939 154.321C95.5939 149.679 98.4728 126.106 115.748 120.348C122.246 118.182 125.567 120.905 127.15 125.635C127.394 126.313 127.579 127.032 127.725 127.772C128.139 129.714 128.343 131.876 128.409 134.111C128.23 132.154 128.14 129.879 127.725 127.772C127.566 127.024 127.375 126.31 127.15 125.635C125.86 122.05 122.945 119.632 115.748 121.499C103.315 124.724 97.1315 144.724 95.5939 154.321Z" fill="#EFC3C3"/>
<path d="M115.748 120.348C100.074 125.572 96.2514 145.461 95.6773 152.571C95.6443 153.154 95.6166 153.737 95.5939 154.321C95.5939 153.891 95.6186 153.298 95.6773 152.571C96.4903 138.241 100.567 124.757 115.165 119.196C127.258 114.589 129.002 128.217 128.435 135.895C128.437 126.055 126.215 116.858 115.748 120.348Z" fill="#5B402D"/>
<path d="M118.051 134.168C113.445 134.168 109.414 141.627 109.414 147.987C109.414 153.17 111.889 157.379 116.324 156.049C122.082 154.321 123.809 134.168 118.051 134.168Z" fill="#00CC21"/>
<path d="M118.051 134.168C113.445 134.168 109.414 141.627 109.414 147.987C109.414 153.17 111.889 157.379 116.324 156.049C122.082 154.321 123.809 134.168 118.051 134.168Z" fill="#00CC21"/>
<path d="M118.051 134.168C113.445 134.168 109.414 141.627 109.414 147.987C109.426 147.977 109.437 147.967 109.449 147.956C112.862 141.653 114.589 141.077 121.516 144.336C121.922 139.126 120.908 134.168 118.051 134.168Z" fill="#007144"/>
<path d="M114.975 140.502C113.234 140.502 111.71 143.995 111.71 146.974C111.71 149.402 112.646 151.373 114.322 150.75C116.498 149.941 117.151 140.502 114.975 140.502Z" fill="#007144"/>
<path d="M152.601 145.108C158.359 142.805 160.087 123.227 154.328 123.227C153.154 123.227 151.944 123.748 150.902 124.576C150.175 132.66 149.226 139.776 148.378 144.562C149.489 145.485 150.915 145.783 152.601 145.108Z" fill="#00CC21"/>
<path d="M150.901 124.576C151.944 123.748 153.154 123.227 154.328 123.227C157.367 123.227 158.321 128.679 157.698 134.168C156.049 133.016 153.17 131.288 151.442 133.016C150.042 134.416 149.815 134.918 149.748 135.307C149.737 135.395 149.726 135.483 149.715 135.571C149.726 135.483 149.733 135.398 149.748 135.307C150.16 132.047 150.556 128.421 150.901 124.576Z" fill="#007144"/>
<path d="M152.163 130.137C150.857 130.137 149.715 133.631 149.715 136.61C149.715 139.037 150.417 141.008 151.674 140.385C153.306 139.576 153.796 130.137 152.163 130.137Z" fill="#007144"/>
<path d="M156.631 168.141C158.359 159.504 152.025 151.25 147.418 149.139C130.374 149.6 127.264 161.807 127.264 171.02C129.376 171.788 131.641 172.863 137.629 175.627C145.115 179.082 154.056 181.017 156.631 168.141Z" fill="#FF8D35"/>
<path d="M153.538 159.932C152.862 154.145 148.9 152.595 147.577 152.146C145.305 151.458 147.739 154.143 149.134 155.681L149.134 155.681C150.775 157.491 153.809 162.252 153.538 159.932Z" fill="#FFC466"/>
<path d="M127.264 171.02C129.376 171.788 131.641 172.863 137.629 175.627C139.926 176.687 146.715 178.47 146.26 175.627C143.957 161.231 131.288 163.535 131.288 159.504C131.288 155.473 134.743 152.877 135.895 152.111C128.84 156.387 127.264 164.462 127.264 171.02Z" fill="#F9753C"/>
<path d="M127.317 168.986C127.281 169.676 127.264 170.356 127.264 171.021C129.306 171.763 131.491 172.793 137.047 175.358C135.319 173.9 134.743 173.324 132.44 172.172C129.042 170.474 127.489 169.665 127.317 168.986Z" fill="#FF9162"/>
<path d="M147.418 149.139C130.374 149.599 127.264 161.807 127.264 171.02C126.119 167.565 126.106 153.169 138.198 148.563C147.872 144.878 149.523 148.09 149.139 150.157C148.552 149.736 147.972 149.393 147.418 149.139Z" fill="#5B402D"/>
<circle cx="120.924" cy="138.198" r="3.45496" fill="white"/>
<circle cx="156.625" cy="127.833" r="2.3033" fill="white"/>
</g>
<defs>
<linearGradient id="paint0_linear_1_61" x1="173.9" y1="1.15167" x2="-1.14274e-05" y2="196.933" gradientUnits="userSpaceOnUse">
<stop offset="0.349203" stop-color="#B46E4A"/>
<stop offset="1" stop-color="#A76D50"/>
</linearGradient>
<clipPath id="clip0_1_61">
<rect width="173.9" height="196.933" fill="white"/>
</clipPath>
</defs>
</svg>
