<svg width="310" height="254" viewBox="0 0 310 254" fill="none" xmlns="http://www.w3.org/2000/svg">
<path d="M113.825 229.597C116.627 234.732 120.078 238.755 123.784 241.906C141.075 256.61 167.349 251.805 186.058 238.955C200.26 229.201 215.337 213.433 221.583 188.671C234.844 136.102 269.951 145.398 274.992 105.075C284.861 26.1236 200.834 7.17925 157.725 17.4159C120.33 26.2957 104.454 59.5079 90.8381 74.3076C77.2224 89.1072 29.3161 84.7571 32.1313 133.695C34.6833 178.059 71.3026 164.806 90.8381 186.118C110.374 207.429 103.17 210.061 113.825 229.597Z" fill="#2F9E41"/>
<g clip-path="url(#clip0_1000_2953)">
<path d="M171.937 39.7807C175.111 18.9521 164.5 5.08076 158.595 0.652222C136.477 8.36762 112.543 35.73 102.91 49.004C79.9055 62.1735 64.0175 83.1128 64.0175 98.4907C64.0175 122.624 71.1924 151.324 71.8446 158.498C72.3664 164.238 66.844 166.978 64.0175 167.63C66.6266 211.984 120.764 222.637 147.507 222.42C187.686 222.42 226.865 198.504 241.432 186.546C238.17 185.024 230.865 179.11 227.734 167.63C225.068 157.856 228.484 137.489 229.264 117.868C264.936 98.036 262.809 59.1248 257.086 41.7445C231.443 37.0822 206.147 43.9622 193.643 49.1842C187.243 45.2798 179.998 42.0158 171.937 39.7807Z" fill="url(#paint0_linear_1000_2953)"/>
<path d="M112.919 36.5264C124.746 22.9435 142.171 6.38132 158.595 0.652222C145.544 6.9139 122.706 27.1774 112.919 36.5264Z" fill="#C37B56"/>
<path d="M202.304 46.0447C216.005 41.7217 236.433 37.9894 257.086 41.7445C247.957 41.35 224.22 41.6579 202.304 46.0447Z" fill="#C37B56"/>
<path d="M241.432 186.546C238.17 185.024 230.865 179.11 227.734 167.63C225.068 157.856 228.484 137.489 229.264 117.868C264.936 98.036 262.809 59.1248 257.086 41.7445C252.305 66.0954 242.744 103.709 217.958 82.1844C207.957 102.404 203.608 169.587 214.044 185.241C214.044 185.241 200.217 199.671 181.432 217.319C208.224 209.627 231.063 195.057 241.432 186.546Z" fill="#9B5F41"/>
<path d="M87.5065 111.536C87.5065 116.232 88.811 133.061 89.4632 140.888L71.8446 149.367C69.228 138.279 65.3297 106.535 66.6342 105.666C78.3749 97.8386 87.5065 105.666 87.5065 111.536Z" fill="#9B5F41"/>
<path d="M114.249 116.754C112.684 129.799 114.466 154.802 115.554 165.673C119.902 172.413 131.469 186.154 142.948 187.198C157.298 188.502 154.037 136.974 152.08 133.061C150.123 129.147 115.345 107.622 114.249 116.754Z" fill="#9B5F41"/>
<path d="M142.296 36.5264C155.863 34.4392 166.84 38.6959 171.937 39.7807C174.316 24.1698 168.951 12.4671 163.628 5.71903C162.984 4.4527 162.188 3.65497 161.495 3.26125C162.192 3.98864 162.91 4.80876 163.628 5.71903C165.117 8.64842 165.795 14.0854 162.516 22.829C157.82 35.3523 148.558 35.563 142.296 36.5264Z" fill="#9B5F41"/>
<path d="M241.432 186.546C238.17 185.024 230.865 179.11 227.734 167.63C226.033 161.394 226.808 150.846 227.794 138.931C226.907 146.106 224.481 157.194 225.785 166.978C226.684 173.722 233.83 183.937 237.526 187.198C231.786 192.416 214.262 203.232 206.217 207.988C221.864 200.722 234.464 192.266 241.432 186.546Z" fill="#B46E4A"/>
<path d="M259.219 76.3141C256.965 88.691 251.039 101.523 238.683 111.536C251.609 95.8818 257.76 81.5321 259.219 76.3141Z" fill="#B46E4A"/>
<path d="M166.43 9.78613C170.107 15.9091 173.083 24.519 172.426 35.2218C171.732 28.9182 169.56 15.0061 166.43 9.78613Z" fill="#B46E4A"/>
<path d="M149.471 35.8741C113.603 35.8741 79.2934 61.0585 68.1853 83.2861C84.8973 57.3986 125.99 31.3083 163.656 37.6716C158.315 36.6822 155.433 35.8741 149.471 35.8741Z" fill="#C37B56"/>
<path d="M87.8263 173.504C89.6113 171.352 91.6023 169.744 93.3691 168.935C92.3765 165.212 90.9874 156.562 89.8806 145.845C94.742 137.888 108.577 145.369 115.102 160.307C115.431 165.324 116.017 169.945 116.198 172.848C116.72 181.197 123.373 186.546 129.244 187.85C139.6 190.152 145.526 188.218 148.731 184.693C159.827 189.413 168.28 196.547 171.64 200.243C163.813 209.157 136.418 230.247 94.6736 210.679C78.4002 202.394 65.2701 188.924 64.0175 167.63C66.844 166.978 72.3664 164.238 71.8446 158.498C72.4822 158.693 73.258 158.961 74.1188 159.296C77.691 168.922 83.1435 173.426 87.8263 173.504Z" fill="#B39A84"/>
<path d="M97.9427 204.809C93.2464 205.853 88.5962 198.721 88.8111 193.068C97.0756 192.633 118.647 189.546 116.198 193.721C113.138 198.939 103.813 203.504 97.9427 204.809Z" fill="#9D836B"/>
<path d="M94.6737 210.679C80.4916 203.459 68.6967 192.301 65.0704 175.457C68.1286 183.502 78.3307 201.808 94.6737 210.679Z" fill="#CBB19B"/>
<path d="M82.0794 106.424C75.0443 100.356 68.6556 104.618 65.5754 106.993C68.6652 102.401 71.3652 99.2149 77.2515 98.7284C85.702 98.03 90.8734 114.009 82.0794 106.424Z" fill="#5B402D"/>
<path d="M117.503 117.406C133.095 118.892 147.507 128.06 152.725 133.713C149.898 129.799 140.471 118.568 131.852 114.797C121.416 110.231 103.805 116.102 117.503 117.406Z" fill="#5B402D"/>
<path d="M71.1924 147.41C67.9311 125.233 73.1492 121.32 78.3672 120.668C81.8594 120.231 86.1679 127.323 88.7675 132.724C89.8603 149.18 91.9948 163.781 93.3691 168.935C91.6024 169.744 89.6113 171.352 87.8263 173.504C81.5204 173.399 73.8186 165.268 71.1924 147.41Z" fill="white"/>
<path d="M78.3672 120.668C73.7497 121.245 69.1322 124.376 70.3903 140.456C70.448 142.675 70.6843 144.833 71.0978 146.756C71.1285 146.972 71.16 147.19 71.1923 147.41C71.1777 147.273 71.1811 147.131 71.1503 146.995C71.1325 146.916 71.115 146.836 71.0978 146.756C70.7724 144.461 70.5398 142.367 70.3903 140.456C70.1686 131.926 72.5849 122.486 77.7225 121.972C82.2657 121.519 84.0512 124.054 88.7675 132.724C86.1678 127.324 81.8593 120.231 78.3672 120.668Z" fill="#EFC3C3"/>
<path d="M71.1923 147.41C67.931 125.233 73.1491 121.319 78.3672 120.667C81.8425 120.233 86.1264 127.255 88.7298 132.646C88.7337 132.386 88.7407 132.085 88.7515 131.756C86.8542 127.842 84.9025 120.706 79.0271 120.015C67.9387 118.711 68.5757 137.626 71.1923 147.41Z" fill="#5B402D"/>
<path d="M116.198 172.848C116.72 181.197 123.373 186.546 129.244 187.85C147.67 191.945 152.072 182.632 152.072 174.805C152.072 169.546 148.811 142.844 129.244 136.322C109.676 129.799 115.546 162.412 116.198 172.848Z" fill="white"/>
<path d="M152.072 174.805C152.072 169.546 148.811 142.844 129.244 136.322C121.883 133.868 118.121 136.953 116.328 142.312C116.052 143.079 115.842 143.893 115.677 144.731C115.208 146.932 114.977 149.381 114.901 151.912C115.105 149.696 115.206 147.119 115.677 144.731C115.857 143.885 116.072 143.075 116.328 142.312C117.789 138.25 121.09 135.512 129.244 137.626C143.327 141.279 150.331 163.934 152.072 174.805Z" fill="#EFC3C3"/>
<path d="M129.244 136.322C146.997 142.24 151.328 164.769 151.978 172.823C152.015 173.482 152.047 174.143 152.072 174.805C152.072 174.318 152.044 173.646 151.978 172.823C151.057 156.591 146.439 141.317 129.903 135.017C116.206 129.799 114.23 145.236 114.872 153.933C114.87 142.787 117.386 132.369 129.244 136.322Z" fill="#5B402D"/>
<path d="M126.634 151.976C131.852 151.976 136.418 160.426 136.418 167.63C136.418 173.501 133.614 178.269 128.591 176.762C122.068 174.805 120.112 151.976 126.634 151.976Z" fill="#00CC21"/>
<path d="M126.634 151.976C131.852 151.976 136.418 160.426 136.418 167.63C136.418 173.501 133.614 178.269 128.591 176.762C122.068 174.805 120.112 151.976 126.634 151.976Z" fill="#00CC21"/>
<path d="M126.634 151.976C131.852 151.976 136.418 160.426 136.418 167.63C136.405 167.619 136.391 167.607 136.378 167.595C132.512 160.455 130.555 159.803 122.709 163.494C122.25 157.593 123.399 151.976 126.634 151.976Z" fill="#007144"/>
<path d="M130.119 159.151C132.091 159.151 133.817 163.109 133.817 166.483C133.817 169.232 132.757 171.466 130.858 170.76C128.393 169.843 127.654 159.151 130.119 159.151Z" fill="#007144"/>
<path d="M87.4987 164.369C80.9762 161.76 79.0193 139.583 85.5419 139.583C86.8719 139.583 88.2431 140.174 89.4235 141.111C90.247 150.269 91.322 158.329 92.2826 163.75C91.024 164.796 89.4083 165.133 87.4987 164.369Z" fill="#00CC21"/>
<path d="M89.4235 141.111C88.2431 140.174 86.8719 139.583 85.5419 139.583C82.0998 139.583 81.0192 145.759 81.7247 151.976C83.5929 150.672 86.8542 148.715 88.8109 150.672C90.3972 152.258 90.6542 152.826 90.7298 153.267C90.7424 153.367 90.755 153.467 90.7677 153.566C90.7552 153.466 90.7474 153.37 90.7298 153.267C90.2637 149.574 89.8152 145.466 89.4235 141.111Z" fill="#007144"/>
<path d="M87.9943 147.41C89.4734 147.41 90.7677 151.368 90.7677 154.742C90.7677 157.492 89.9728 159.725 88.5489 159.019C86.7 158.103 86.1453 147.41 87.9943 147.41Z" fill="#007144"/>
<path d="M82.933 190.459C80.9762 180.675 88.151 171.326 93.3691 168.935C112.676 169.456 116.198 183.284 116.198 193.72C113.807 194.59 111.241 195.808 104.457 198.939C95.9781 202.852 85.85 205.044 82.933 190.459Z" fill="#FF8D35"/>
<path d="M86.4374 181.161C87.2029 174.605 91.6902 172.85 93.189 172.341C95.763 171.562 93.0057 174.603 91.426 176.345L91.426 176.345C89.5673 178.395 86.1307 183.788 86.4374 181.161Z" fill="#FFC466"/>
<path d="M116.198 193.721C113.807 194.59 111.241 195.808 104.457 198.939C101.856 200.139 94.166 202.159 94.6813 198.939C97.2903 182.632 111.64 185.241 111.64 180.676C111.64 176.11 107.726 173.169 106.422 172.302C114.414 177.145 116.198 186.292 116.198 193.721Z" fill="#F9753C"/>
<path d="M116.139 191.416C116.18 192.198 116.198 192.968 116.198 193.721C113.886 194.561 111.411 195.728 105.117 198.634C107.074 196.982 107.726 196.33 110.335 195.025C114.184 193.101 115.944 192.184 116.139 191.416Z" fill="#FF9162"/>
<path d="M93.3691 168.935C112.676 169.457 116.198 183.284 116.198 193.721C117.495 189.807 117.51 173.501 103.813 168.282C92.8549 164.108 90.9851 167.747 91.42 170.089C92.0851 169.611 92.7413 169.222 93.3691 168.935Z" fill="#5B402D"/>
<circle cx="3.91355" cy="3.91355" r="3.91355" transform="matrix(-1 0 0 1 127.294 152.628)" fill="white"/>
<circle cx="2.60903" cy="2.60903" r="2.60903" transform="matrix(-1 0 0 1 85.5497 142.192)" fill="white"/>
</g>
<path d="M294.327 194.688C297.633 193.021 301.476 195.668 301.096 199.351L299.284 216.933C299.192 217.824 299.358 218.723 299.761 219.523L307.721 235.304C309.389 238.61 306.742 242.453 303.058 242.073L285.477 240.261C284.586 240.169 283.687 240.335 282.887 240.738L267.106 248.698C263.8 250.366 259.957 247.719 260.337 244.036L262.148 226.454C262.24 225.563 262.075 224.664 261.671 223.864L253.711 208.083C252.044 204.777 254.691 200.934 258.374 201.314L275.956 203.126C276.847 203.217 277.746 203.052 278.546 202.648L294.327 194.688Z" fill="#2F9E41"/>
<path d="M19.7582 17.5311C20.886 14.9958 24.3708 14.7096 25.8971 17.027L33.1822 28.0884C33.5514 28.6491 34.0737 29.0921 34.6871 29.3649L46.7887 34.7481C49.324 35.8759 49.6102 39.3607 47.2928 40.8869L36.2314 48.1721C35.6707 48.5413 35.2277 49.0636 34.9549 49.677L29.5717 61.7786C28.444 64.3139 24.9591 64.6001 23.4329 62.2827L16.1478 51.2213C15.7785 50.6606 15.2562 50.2176 14.6429 49.9448L2.54125 44.5616C0.00592086 43.4338 -0.280228 39.949 2.03717 38.4228L13.0986 31.1376C13.6592 30.7684 14.1022 30.2461 14.3751 29.6327L19.7582 17.5311Z" fill="#2F9E41"/>
<defs>
<linearGradient id="paint0_linear_1000_2953" x1="63.3729" y1="1.30448" x2="260.355" y2="223.072" gradientUnits="userSpaceOnUse">
<stop offset="0.349203" stop-color="#B46E4A"/>
<stop offset="1" stop-color="#A76D50"/>
</linearGradient>
<clipPath id="clip0_1000_2953">
<rect width="196.982" height="223.072" fill="white" transform="matrix(-1 0 0 1 260.355 0)"/>
</clipPath>
</defs>
</svg>
